<svg 
    viewBox="0 0 512 512" 
>
    <g fill="currentColor">
        <path 
            d="M207.07 295.35a13.1 13.1 0 0 1-13.1-13.1V122.67a11.15 11.15 0 0 0-22.28 0v159.56a13.1 13.1 0 0 1-26.21 0V122.69c0-20.6 16.75-37.36 37.35-37.36s37.35 16.76 37.35 37.36v159.56a13.1 13.1 0 0 1-13.1 13.1m-96.99 0a13.1 13.1 0 0 1-13.1-13.1v-171.7a11.15 11.15 0 0 0-22.29 0v33.55a13.1 13.1 0 0 1-26.2 0v-33.55c0-20.6 16.75-37.35 37.34-37.35s37.36 16.76 37.36 37.35v171.7a13.1 13.1 0 0 1-13.11 13.1"
        />
        <path 
            d="M158.58 295.35a13.1 13.1 0 0 1-13.1-13.1V86.3a11.15 11.15 0 0 0-22.28 0v195.94a13.1 13.1 0 0 1-26.22 0V86.3c0-20.6 16.76-37.35 37.36-37.35s37.35 16.76 37.35 37.35v195.94a13.1 13.1 0 0 1-13.1 13.1M70.32 427.75a13.1 13.1 0 0 1-11.7-7.2 70 70 0 0 0-20.33-24.23A96.2 96.2 0 0 1 0 319.73V214.58c0-20.6 16.76-37.35 37.35-37.35S74.7 194 74.7 214.58v56.75a13.1 13.1 0 0 1-26.2 0v-56.75a11.15 11.15 0 0 0-22.29 0v105.15a69.9 69.9 0 0 0 27.8 55.62 96 96 0 0 1 28 33.38 13.1 13.1 0 0 1-11.69 19.02m185.25-132.4a13.1 13.1 0 0 1-13.11-13.1v-123.2a11.15 11.15 0 0 0-22.28 0v123.2a13.1 13.1 0 0 1-26.21 0v-123.2c0-20.6 16.75-37.35 37.35-37.35s37.35 16.75 37.35 37.35v123.2a13.1 13.1 0 0 1-13.1 13.1m97.85 0a13.1 13.1 0 0 1-13.1-13.1V122.67a11.15 11.15 0 0 0-22.29 0v159.56a13.1 13.1 0 0 1-26.21 0V122.69a37.4 37.4 0 0 1 37.35-37.36 37.4 37.4 0 0 1 37.35 37.36v159.56a13.1 13.1 0 0 1-13.1 13.1m48.49 0a13.1 13.1 0 0 1-13.1-13.1v-171.7c0-20.6 16.75-37.35 37.35-37.35s37.35 16.76 37.35 37.35v33.55a13.1 13.1 0 0 1-26.21 0v-33.55a11.15 11.15 0 0 0-22.28 0v171.7a13.1 13.1 0 0 1-13.11 13.1"
        />
        <path  
            d="M401.91 295.35a13.1 13.1 0 0 1-13.1-13.1V86.3a11.15 11.15 0 0 0-22.29 0v195.94a13.1 13.1 0 0 1-26.2 0V86.3a37.4 37.4 0 0 1 37.34-37.35 37.4 37.4 0 0 1 37.36 37.35v195.94a13.1 13.1 0 0 1-13.11 13.1m39.77 132.41a13.1 13.1 0 0 1-11.69-19.02 96 96 0 0 1 28-33.38 69.9 69.9 0 0 0 27.8-55.62V214.58a11.15 11.15 0 0 0-22.28 0v56.75a13.1 13.1 0 1 1-26.21 0v-56.75a37.4 37.4 0 0 1 37.35-37.35A37.4 37.4 0 0 1 512 214.58v105.15a96.2 96.2 0 0 1-38.29 76.59 70 70 0 0 0-20.32 24.24 13.1 13.1 0 0 1-11.71 7.2M304.93 295.35a13.1 13.1 0 0 1-13.11-13.1v-123.2a11.15 11.15 0 0 0-22.28 0v123.2a13.1 13.1 0 0 1-26.21 0v-123.2c0-20.6 16.75-37.35 37.35-37.35s37.35 16.75 37.35 37.35v123.2a13.1 13.1 0 0 1-13.1 13.1"
        />
    </g>
    <path 
        d="M320.18 193.45c-38.31 0-55.5 21.48-62.27 34.09a2.28 2.28 0 0 1-4 0c-6.74-12.62-23.84-34.1-62.15-34.1-43.65 0-82.04 29.8-82.04 84.2 0 22.02 4.49 40.88 16.94 61.93 25.37 42.9 108.97 98.5 126.14 109.46a5.8 5.8 0 0 0 6.2 0c17.2-10.9 100.8-66.23 126.38-109.46 12.45-21.05 16.9-39.9 16.9-61.92 0-54.4-38.45-84.2-82.1-84.2" 
        fill="#deb5e3"
    />
    <path 
        d="M255.9 463.05c-3.6 0-7.1-1.03-10.15-2.97-10.36-6.61-102.07-66-130.37-113.83-12.98-21.94-18.77-43.1-18.77-68.6 0-29.32 9.94-54.22 28.75-72.02 17.23-16.3 40.8-25.29 66.4-25.29 32.97 0 52.78 13.76 64.23 27.15 11.15-12.77 31.06-27.15 64.2-27.15 25.58 0 49.17 8.98 66.41 25.28 18.84 17.81 28.79 42.72 28.79 72.03 0 25.54-5.78 46.7-18.73 68.6-28.51 48.19-120.27 107.28-130.63 113.86a19 19 0 0 1-10.12 2.94m-64.14-256.5c-34.31 0-68.94 21.99-68.94 71.1 0 20.82 4.52 37.34 15.12 55.25 22.97 38.83 99.5 90.43 118 102.54 36.36-23.49 98.27-68.93 118.15-102.54 10.58-17.87 15.09-34.4 15.09-55.25 0-49.11-34.66-71.1-69-71.1-29.88 0-44.07 14.78-50.72 27.18-2.68 5-7.87 8.1-13.55 8.1-5.7 0-10.89-3.11-13.56-8.12-6.62-12.39-20.77-27.15-50.6-27.15" 
        fill="#ffda36"
    />
</svg>
